:FULLY-SPECIFIED
:FORCE-ALL-JOINTS-BE-3DOF
:DEGREES
204
root -2.89834 16.3096 -36.1129 3.76941 0.662496 -2.91469
lfemur -23.8684 6.70379 -8.19545
ltibia 48.5999 -0 0
lfoot -23.7726 0.400569 2.15411e-05
ltoes -9.78508 0 0
rfemur -23.8171 -7.5301 14.6378
rtibia 50.6781 -0 0
rfoot -27.6023 2.04936 -0.000149041
rtoes -8.27819 0 0
lowerback 7.29295 1.95439 -1.69658
upperback -3.75171 2.53928 1.3016
thorax -8.1905 1.37415 1.96275
lowerneck -3.4199 -3.91657 -6.54249
upperneck 6.8825 -5.28782 6.02629
head 3.24376 -2.60332 2.95929
lclavicle -1.30647e-14 4.96962e-16 0
lhumerus -26.5643 -1.87408 88.7838
lradius 24.3108 -0 0
lwrist -31.3815 0 0
lhand -28.2339 30.1046 7.22396e-06
lfingers 7.12502 -0 0
lthumb -1.61185 60.0783 6.99782e-06
rclavicle -1.30647e-14 4.96962e-16 0
rhumerus -32.2408 1.98626 -79.915
rradius 30.4311 -0 0
rwrist 3.13638 0 0
rhand -20.0861 -26.817 -2.4829e-06
rfingers 7.12502 -0 0
rthumb 6.25667 -56.7046 -2.34286e-06
205
root -2.89986 16.3073 -36.1118 3.76904 0.665803 -2.91965
lfemur -23.8869 6.71638 -8.18285
ltibia 48.6423 -0 0
lfoot -23.7947 0.399138 1.10467e-05
ltoes -9.80141 0 0
rfemur -23.8332 -7.54993 14.6477
rtibia 50.7193 -0 0
rfoot -27.6266 2.05836 -7.64314e-05
rtoes -8.28682 0 0
lowerback 7.29213 1.95406 -1.69611
upperback -3.74972 2.53897 1.30261
thorax -8.18789 1.37397 1.96365
lowerneck -3.42796 -3.91825 -6.5413
upperneck 6.8939 -5.29009 6.02564
head 3.2493 -2.60432 2.95869
lclavicle -1.30647e-14 4.96962e-16 0
lhumerus -26.5566 -1.88205 88.7889
lradius 24.3143 -0 0
lwrist -31.3777 0 0
lhand -28.2317 30.1096 3.70459e-06
lfingers 7.12502 -0 0
lthumb -1.60978 60.0832 3.58863e-06
rclavicle -1.30647e-14 4.96962e-16 0
rhumerus -32.2302 1.99501 -79.9268
rradius 30.4434 -0 0
rwrist 3.13027 0 0
rhand -20.0844 -26.8192 -1.27328e-06
rfingers 7.12502 -0 0
rthumb 6.25831 -56.7067 -1.20147e-06
206
root -2.90138 16.305 -36.1106 3.76868 0.66911 -2.9246
lfemur -23.9054 6.72898 -8.17025
ltibia 48.6848 0 0
lfoot -23.8168 0.397708 0
ltoes -9.81773 0 0
rfemur -23.8493 -7.56976 14.6577
rtibia 50.7605 0 0
rfoot -27.6509 2.06737 0
rtoes -8.29546 0 0
lowerback 7.29131 1.95374 -1.69565
upperback -3.74773 2.53866 1.30361
thorax -8.18527 1.37379 1.96455
lowerneck -3.43602 -3.91994 -6.54011
upperneck 6.9053 -5.29236 6.02499
head 3.25484 -2.60532 2.95808
lclavicle -1.30647e-14 4.96962e-16 0
lhumerus -26.5489 -1.89002 88.794
lradius 24.3179 0 0
lwrist -31.374 0 0
lhand -28.2296 30.1145 0
lfingers 7.12502 0 0
lthumb -1.6077 60.0882 0
rclavicle -1.30647e-14 4.96962e-16 0
rhumerus -32.2196 2.00376 -79.9386
rradius 30.4557 0 0
rwrist 3.12415 0 0
rhand -20.0827 -26.8213 0
rfingers 7.12502 0 0
rthumb 6.25995 -56.7088 0
207
root -2.90104 16.303 -36.1104 3.76083 0.664855 -2.92043
lfemur -23.9102 6.73206 -8.174
ltibia 48.7163 -0 0
lfoot -23.8337 0.404325 -3.90854e-05
ltoes -9.83143 0 0
rfemur -23.8578 -7.58007 14.6492
rtibia 50.7941 -0 0
rfoot -27.6681 2.07644 -5.43672e-05
rtoes -8.2947 0 0
lowerback 7.30151 1.9536 -1.69701
upperback -3.7437 2.5383 1.30526
thorax -8.187 1.37369 1.96687
lowerneck -3.49341 -3.86309 -6.47849
upperneck 6.95311 -5.21349 5.96263
head 3.27363 -2.56578 2.92963
lclavicle 8.24413e-15 1.54058e-15 0
lhumerus -26.5554 -1.89495 88.7977
lradius 24.3222 -0 0
lwrist -31.3562 0 0
lhand -28.2297 30.1218 -3.43885e-07
lfingers 7.12502 -0 0
lthumb -1.60783 60.0955 -3.31895e-07
rclavicle 8.24413e-15 1.54058e-15 0
rhumerus -32.2152 1.99847 -79.9243
rradius 30.4504 -0 0
rwrist 3.13655 0 0
rhand -20.0742 -26.8109 3.06991e-05
rfingers 7.12502 -0 0
rthumb 6.26813 -56.6982 3.03489e-05
208
root -2.9007 16.3011 -36.1102 3.75299 0.6606 -2.91625
lfemur -23.9149 6.73515 -8.17775
ltibia 48.7478 -0 0
lfoot -23.8506 0.410942 -7.62165e-05
ltoes -9.84512 0 0
rfemur -23.8663 -7.59038 14.6406
rtibia 50.8277 -0 0
rfoot -27.6853 2.0855 -0.000106016
rtoes -8.29393 0 0
lowerback 7.31171 1.95345 -1.69837
upperback -3.73966 2.53794 1.30691
thorax -8.18872 1.3736 1.96919
lowerneck -3.55073 -3.80617 -6.41693
upperneck 7.00083 -5.13456 5.90035
head 3.29241 -2.52623 2.90119
lclavicle 8.24413e-15 1.54058e-15 0
lhumerus -26.5618 -1.89988 88.8014
lradius 24.3266 -0 0
lwrist -31.3384 0 0
lhand -28.2299 30.1292 -6.70576e-07
lfingers 7.12502 -0 0
lthumb -1.60796 60.1029 -6.47195e-07
rclavicle 8.24413e-15 1.54058e-15 0
rhumerus -32.2107 1.99318 -79.91
rradius 30.4452 -0 0
rwrist 3.14895 0 0
rhand -20.0658 -26.8005 5.98632e-05
rfingers 7.12502 -0 0
rthumb 6.2763 -56.6875 5.91804e-05
209
root -2.90037 16.2991 -36.1099 3.74514 0.656345 -2.91208
lfemur -23.9197 6.73823 -8.1815
ltibia 48.7793 -0 0
lfoot -23.8676 0.417559 -0.000111393
ltoes -9.85882 0 0
rfemur -23.8747 -7.60069 14.6321
rtibia 50.8613 -0 0
rfoot -27.7024 2.09457 -0.000154947
rtoes -8.29317 0 0
lowerback 7.32191 1.95331 -1.69974
upperback -3.73563 2.53758 1.30857
thorax -8.19045 1.3735 1.9715
lowerneck -3.60799 -3.74919 -6.35543
upperneck 7.04846 -5.05558 5.83814
head 3.31116 -2.48668 2.87277
lclavicle 8.24413e-15 1.54058e-15 0
lhumerus -26.5683 -1.90481 88.805
lradius 24.3309 -0 0
lwrist -31.3206 0 0
lhand -28.23 30.1365 -9.80072e-07
lfingers 7.12502 -0 0
lthumb -1.60809 60.1102 -9.45901e-07
rclavicle 8.24413e-15 1.54058e-15 0
rhumerus -32.2063 1.98789 -79.8957
rradius 30.4399 -0 0
rwrist 3.16136 0 0
rhand -20.0573 -26.7901 8.74924e-05
rfingers 7.12502 -0 0
rthumb 6.28448 -56.6769 8.64944e-05
210
root -2.90003 16.2971 -36.1097 3.7373 0.652092 -2.90791
lfemur -23.9244 6.74132 -8.18525
ltibia 48.8108 -0 0
lfoot -23.8845 0.424175 -0.000144616
ltoes -9.87252 0 0
rfemur -23.8832 -7.611 14.6235
rtibia 50.8949 -0 0
rfoot -27.7196 2.10364 -0.000201159
rtoes -8.29241 0 0
lowerback 7.33211 1.95317 -1.7011
upperback -3.73159 2.53722 1.31022
thorax -8.19218 1.3734 1.97382
lowerneck -3.66519 -3.69215 -6.29399
upperneck 7.096 -4.97656 5.776
head 3.32989 -2.44711 2.84436
lclavicle 8.24413e-15 1.54058e-15 0
lhumerus -26.5748 -1.90974 88.8087
lradius 24.3352 -0 0
lwrist -31.3029 0 0
lhand -28.2301 30.1439 -1.27237e-06
lfingers 7.12502 -0 0
lthumb -1.60822 60.1176 -1.22801e-06
rclavicle 8.24413e-15 1.54058e-15 0
rhumerus -32.2019 1.9826 -79.8815
rradius 30.4346 -0 0
rwrist 3.17376 0 0
rhand -20.0488 -26.7798 0.000113587
rfingers 7.12502 -0 0
rthumb 6.29265 -56.6663 0.000112291
211
root -2.89969 16.2952 -36.1095 3.72945 0.647839 -2.90373
lfemur -23.9292 6.7444 -8.189
ltibia 48.8423 -0 0
lfoot -23.9014 0.430792 -0.000175884
ltoes -9.88621 0 0
rfemur -23.8917 -7.62131 14.615
rtibia 50.9284 -0 0
rfoot -27.7368 2.1127 -0.000244653
rtoes -8.29164 0 0
lowerback 7.34231 1.95303 -1.70246
upperback -3.72756 2.53686 1.31187
thorax -8.1939 1.37331 1.97614
lowerneck -3.72232 -3.63505 -6.23261
upperneck 7.14344 -4.89748 5.71394
head 3.3486 -2.40753 2.81597
lclavicle 8.24413e-15 1.54058e-15 0
lhumerus -26.5813 -1.91467 88.8124
lradius 24.3395 -0 0
lwrist -31.2851 0 0
lhand -28.2303 30.1512 -1.54748e-06
lfingers 7.12502 -0 0
lthumb -1.60835 60.1249 -1.49353e-06
rclavicle 8.24413e-15 1.54058e-15 0
rhumerus -32.1974 1.97731 -79.8672
rradius 30.4293 -0 0
rwrist 3.18616 0 0
rhand -20.0404 -26.7694 0.000138146
rfingers 7.12502 -0 0
rthumb 6.30083 -56.6556 0.00013657
212
root -2.89935 16.2932 -36.1093 3.7216 0.643586 -2.89955
lfemur -23.9339 6.74749 -8.19275
ltibia 48.8739 -0 0
lfoot -23.9183 0.437409 -0.000205199
ltoes -9.89991 0 0
rfemur -23.9002 -7.63163 14.6065
rtibia 50.962 -0 0
rfoot -27.754 2.12177 -0.000285428
rtoes -8.29088 0 0
lowerback 7.35251 1.95289 -1.70382
upperback -3.72352 2.5365 1.31352
thorax -8.19563 1.37321 1.97846
lowerneck -3.77938 -3.57789 -6.17129
upperneck 7.1908 -4.81834 5.65195
head 3.36729 -2.36795 2.78759
lclavicle 8.24413e-15 1.54058e-15 0
lhumerus -26.5877 -1.9196 88.8161
lradius 24.3439 -0 0
lwrist -31.2673 0 0
lhand -28.2304 30.1586 -1.8054e-06
lfingers 7.12502 -0 0
lthumb -1.60848 60.1322 -1.74245e-06
rclavicle 8.24413e-15 1.54058e-15 0
rhumerus -32.193 1.97201 -79.8529
rradius 30.4241 -0 0
rwrist 3.19856 0 0
rhand -20.0319 -26.759 0.00016117
rfingers 7.12502 -0 0
rthumb 6.309 -56.645 0.000159332
213
root -2.89901 16.2913 -36.109 3.71376 0.639334 -2.89538
lfemur -23.9387 6.75057 -8.1965
ltibia 48.9054 -0 0
lfoot -23.9353 0.444026 -0.000232558
ltoes -9.91361 0 0
rfemur -23.9087 -7.64195 14.5979
rtibia 50.9956 -0 0
rfoot -27.7711 2.13084 -0.000323485
rtoes -8.29012 0 0
lowerback 7.36271 1.95274 -1.70518
upperback -3.71949 2.53614 1.31517
thorax -8.19736 1.37311 1.98078
lowerneck -3.83638 -3.52067 -6.11004
upperneck 7.23806 -4.73916 5.59003
head 3.38597 -2.32836 2.75922
lclavicle 8.24413e-15 1.54058e-15 0
lhumerus -26.5942 -1.92453 88.8198
lradius 24.3482 -0 0
lwrist -31.2495 0 0
lhand -28.2305 30.1659 -2.04612e-06
lfingers 7.12502 -0 0
lthumb -1.60861 60.1396 -1.97478e-06
rclavicle 8.24413e-15 1.54058e-15 0
rhumerus -32.1886 1.96672 -79.8386
rradius 30.4188 -0 0
rwrist 3.21097 0 0
rhand -20.0234 -26.7486 0.00018266
rfingers 7.12502 -0 0
rthumb 6.31718 -56.6344 0.000180576
214
root -2.89867 16.2893 -36.1088 3.70591 0.635083 -2.8912
lfemur -23.9434 6.75365 -8.20025
ltibia 48.9369 -0 0
lfoot -23.9522 0.450643 -0.000257964
ltoes -9.9273 0 0
rfemur -23.9171 -7.65226 14.5894
rtibia 51.0292 -0 0
rfoot -27.7883 2.1399 -0.000358824
rtoes -8.28935 0 0
lowerback 7.37292 1.9526 -1.70654
upperback -3.71546 2.53578 1.31683
thorax -8.19908 1.37302 1.98309
lowerneck -3.89332 -3.46339 -6.04884
upperneck 7.28523 -4.65993 5.52819
head 3.40462 -2.28875 2.73087
lclavicle 8.24413e-15 1.54058e-15 0
lhumerus -26.6007 -1.92946 88.8235
lradius 24.3525 -0 0
lwrist -31.2317 0 0
lhand -28.2307 30.1733 -2.26964e-06
lfingers 7.12502 -0 0
lthumb -1.60874 60.1469 -2.19051e-06
rclavicle 8.24413e-15 1.54058e-15 0
rhumerus -32.1841 1.96142 -79.8243
rradius 30.4135 -0 0
rwrist 3.22337 0 0
rhand -20.015 -26.7382 0.000202614
rfingers 7.12502 -0 0
rthumb 6.32536 -56.6237 0.000200303
215
root -2.89834 16.2873 -36.1086 3.69806 0.630832 -2.88702
lfemur -23.9482 6.75673 -8.204
ltibia 48.9684 -0 0
lfoot -23.9691 0.45726 -0.000281415
ltoes -9.941 0 0
rfemur -23.9256 -7.66258 14.5809
rtibia 51.0628 -0 0
rfoot -27.8055 2.14897 -0.000391445
rtoes -8.28859 0 0
lowerback 7.38312 1.95246 -1.70791
upperback -3.71142 2.53542 1.31848
thorax -8.20081 1.37292 1.98541
lowerneck -3.95019 -3.40604 -5.98771
upperneck 7.33231 -4.58065 5.46641
head 3.42325 -2.24914 2.70253
lclavicle 8.24413e-15 1.54058e-15 0
lhumerus -26.6072 -1.93439 88.8272
lradius 24.3568 -0 0
lwrist -31.2139 0 0
lhand -28.2308 30.1806 -2.47597e-06
lfingers 7.12502 -0 0
lthumb -1.60887 60.1543 -2.38964e-06
rclavicle 8.24413e-15 1.54058e-15 0
rhumerus -32.1797 1.95613 -79.8101
rradius 30.4083 -0 0
rwrist 3.23577 0 0
rhand -20.0065 -26.7278 0.000221033
rfingers 7.12502 -0 0
rthumb 6.33353 -56.6131 0.000218512
